{"title":"The Agony Scene - Prey [2005, Melodic Death Metal/Metalcore]","uid":5417435,"size":221190144,"categoryP":"video","categoryS":"music_videos","magnet":"?xt=urn:btih:d15ae6ecbbbfdcdd90285bc78f22c1696e23b331&amp;dn=The+Agony+Scene+-+Prey+%5B2005%2C+Melodic+Death+Metal%2FMetalcore%5D&amp;tr=udp%3A%2F%2Ftracker.openbittorrent.com%3A80&amp;tr=udp%3A%2F%2Fopen.demonii.com%3A1337&amp;tr=udp%3A%2F%2Ftracker.coppersurfer.tk%3A6969&amp;tr=udp%3A%2F%2Fexodus.desync.com%3A6969","seeders":1,"leechers":0,"uploader":"ncuxanam","files":1,"time":1267974010,"description":"The Agony Scene - Prey\n\nGenre:Melodic Death Metal/Metalcore\nLength: 3:50\n\n\nFormat                           : MPEG-PS\nFile size                        : 211 MiB\nDuration                         : 3mn 50s\nOverall bit rate                 : 7 674 Kbps\n\nVideo\nID                               : 224 (0xE0)\nFormat                           : MPEG Video\nFormat version                   : Version 2\nFormat profile                   : Main@Main\nFormat settings, BVOP            : Yes\nFormat settings, Matrix          : Default\nFormat_Settings_GOP              : M=3, N=13\nDuration                         : 3mn 50s\nBit rate mode                    : Variable\nBit rate                         : 5 833 Kbps\nNominal bit rate                 : 8 000 Kbps\nWidth                            : 720 pixels\nHeight                           : 576 pixels\nDisplay aspect ratio             : 4:3\nFrame rate                       : 25.000 fps\nStandard                         : PAL\nResolution                       : 8 bits\nColorimetry                      : 4:2:0\nScan type                        : Interlaced\nScan order                       : Top Field First\nBits/(Pixel*Frame)               : 0.563\nStream size                      : 160 MiB (76%)\n\nAudio\nID                               : 160 (0xA0)\nFormat                           : PCM\nFormat settings, Endianness      : Big\nFormat settings, Sign            : Signed\nMuxing mode                      : DVD-Video\nDuration                         : 3mn 50s\nBit rate mode                    : Constant\nBit rate                         : 1 536 Kbps\nChannel(s)                       : 2 channels\nChannel positions                : Front: L R\nSampling rate                    : 48.0 KHz\nResolution                       : 16 bits\nVideo delay                      : -268ms\nStream size                      : 42.2 MiB (20%)","torrent":{"xt":"urn:btih:d15ae6ecbbbfdcdd90285bc78f22c1696e23b331","amp;dn":"The+Agony+Scene+-+Prey+%5B2005%2C+Melodic+Death+Metal%2FMetalcore%5D","amp;tr":["udp%3A%2F%2Ftracker.openbittorrent.com%3A80","udp%3A%2F%2Fopen.demonii.com%3A1337","udp%3A%2F%2Ftracker.coppersurfer.tk%3A6969","udp%3A%2F%2Fexodus.desync.com%3A6969"],"infoHash":"d15ae6ecbbbfdcdd90285bc78f22c1696e23b331","infoHashBuffer":{"type":"Buffer","data":[209,90,230,236,187,191,220,221,144,40,91,199,143,34,193,105,110,35,179,49]},"announce":[],"urlList":[]}}